<svg width="51" height="38" viewBox="0 0 51 38" fill="none" xmlns="http://www.w3.org/2000/svg">
<g filter="url(#filter0_ddd_1903_111727)">
<rect x="5" y="4" width="41" height="28" rx="4" fill="white"/>
<path fill-rule="evenodd" clip-rule="evenodd" d="M15.6874 14.5742H13.679C13.5416 14.5742 13.4247 14.6737 13.4033 14.8088L12.591 19.9379C12.5748 20.0391 12.6535 20.1303 12.7566 20.1303H13.7154C13.8528 20.1303 13.9697 20.0308 13.9912 19.8955L14.2102 18.5121C14.2314 18.3766 14.3486 18.2773 14.4857 18.2773H15.1215C16.4445 18.2773 17.2079 17.6397 17.4074 16.3762C17.4973 15.8235 17.4112 15.3891 17.1513 15.0849C16.8659 14.751 16.3595 14.5742 15.6874 14.5742ZM15.9191 16.4475C15.8093 17.1653 15.2586 17.1653 14.7262 17.1653H14.4231L14.6358 15.8248C14.6484 15.7439 14.7189 15.6842 14.8011 15.6842H14.94C15.3027 15.6842 15.6448 15.6842 15.8216 15.8901C15.927 16.0129 15.9593 16.1954 15.9191 16.4475ZM21.6908 16.4245H20.7291C20.6471 16.4245 20.5763 16.4842 20.5637 16.5653L20.5211 16.8332L20.4539 16.7361C20.2457 16.4351 19.7814 16.3345 19.318 16.3345C18.2552 16.3345 17.3475 17.1362 17.1707 18.2608C17.0788 18.8217 17.2094 19.358 17.5289 19.7321C17.8221 20.076 18.2414 20.2194 18.7403 20.2194C19.5966 20.2194 20.0716 19.671 20.0716 19.671L20.0286 19.9372C20.0125 20.039 20.0912 20.1302 20.1936 20.1302H21.06C21.1978 20.1302 21.314 20.0307 21.3357 19.8954L21.8555 16.617C21.872 16.5162 21.7936 16.4245 21.6908 16.4245ZM20.3502 18.2888C20.2574 18.836 19.8213 19.2033 19.2652 19.2033C18.9859 19.2033 18.7626 19.1141 18.6194 18.9451C18.4772 18.7773 18.4231 18.5382 18.4684 18.2722C18.5551 17.7295 18.9985 17.3503 19.5462 17.3503C19.8192 17.3503 20.0413 17.4406 20.1875 17.6111C20.334 17.7834 20.3922 18.0238 20.3502 18.2888ZM25.8465 16.4244H26.813C26.9483 16.4244 27.0273 16.5756 26.9504 16.6862L23.736 21.3072C23.6839 21.382 23.5982 21.4265 23.5066 21.4265H22.5413C22.4054 21.4265 22.326 21.2741 22.4047 21.1633L23.4056 19.7562L22.3411 16.6449C22.3043 16.5367 22.3845 16.4244 22.5 16.4244H23.4496C23.573 16.4244 23.6819 16.5051 23.7175 16.6227L24.2824 18.5018L25.6155 16.5464C25.6676 16.47 25.7543 16.4244 25.8465 16.4244Z" fill="#253B80"/>
<path fill-rule="evenodd" clip-rule="evenodd" d="M36.326 19.9372L37.1502 14.7143C37.1628 14.6332 37.2334 14.5735 37.3153 14.5732H38.2432C38.3457 14.5732 38.4244 14.6647 38.4082 14.766L37.5954 19.8948C37.5742 20.0301 37.4573 20.1296 37.3197 20.1296H36.491C36.3885 20.1296 36.3098 20.0384 36.326 19.9372ZM30.0136 14.5735H28.0049C27.8678 14.5735 27.7509 14.673 27.7294 14.8081L26.9172 19.9372C26.901 20.0384 26.9797 20.1296 27.0823 20.1296H28.1129C28.2087 20.1296 28.2907 20.06 28.3056 19.9653L28.5361 18.5114C28.5573 18.3759 28.6745 18.2766 28.8116 18.2766H29.447C30.7703 18.2766 31.5336 17.639 31.7333 16.3755C31.8234 15.8228 31.7368 15.3884 31.477 15.0842C31.1917 14.7503 30.6858 14.5735 30.0136 14.5735ZM30.2453 16.4468C30.1358 17.1646 29.5851 17.1646 29.0524 17.1646H28.7496L28.9626 15.8241C28.9752 15.7432 29.0451 15.6835 29.1275 15.6835H29.2664C29.6289 15.6835 29.9713 15.6835 30.148 15.8893C30.2535 16.0122 30.2855 16.1947 30.2453 16.4468ZM36.0165 16.4238H35.0555C34.9728 16.4238 34.9027 16.4835 34.8903 16.5646L34.8478 16.8324L34.7803 16.7354C34.5721 16.4344 34.1081 16.3338 33.6447 16.3338C32.5818 16.3338 31.6744 17.1355 31.4976 18.2601C31.406 18.821 31.5361 19.3573 31.8556 19.7314C32.1493 20.0753 32.5681 20.2187 33.067 20.2187C33.9233 20.2187 34.3981 19.6702 34.3981 19.6702L34.3553 19.9365C34.3391 20.0383 34.4178 20.1295 34.521 20.1295H35.3869C35.524 20.1295 35.6409 20.03 35.6624 19.8947L36.1825 16.6163C36.1984 16.5155 36.1197 16.4238 36.0165 16.4238ZM34.676 18.2881C34.5837 18.8353 34.1471 19.2026 33.5909 19.2026C33.3121 19.2026 33.0885 19.1134 32.9451 18.9444C32.8029 18.7766 32.7495 18.5375 32.7942 18.2714C32.8813 17.7288 33.3242 17.3496 33.8719 17.3496C34.1451 17.3496 34.367 17.4399 34.5134 17.6104C34.6604 17.7827 34.7186 18.0231 34.676 18.2881Z" fill="#34A8DC"/>
</g>
<defs>
<filter id="filter0_ddd_1903_111727" x="0" y="0" width="51" height="38" filterUnits="userSpaceOnUse" color-interpolation-filters="sRGB">
<feFlood flood-opacity="0" result="BackgroundImageFix"/>
<feColorMatrix in="SourceAlpha" type="matrix" values="0 0 0 0 0 0 0 0 0 0 0 0 0 0 0 0 0 0 127 0" result="hardAlpha"/>
<feOffset dy="1"/>
<feGaussianBlur stdDeviation="2.5"/>
<feColorMatrix type="matrix" values="0 0 0 0 0.0980392 0 0 0 0 0.113725 0 0 0 0 0.227451 0 0 0 0.07 0"/>
<feBlend mode="normal" in2="BackgroundImageFix" result="effect1_dropShadow_1903_111727"/>
<feColorMatrix in="SourceAlpha" type="matrix" values="0 0 0 0 0 0 0 0 0 0 0 0 0 0 0 0 0 0 127 0" result="hardAlpha"/>
<feMorphology radius="2" operator="erode" in="SourceAlpha" result="effect2_dropShadow_1903_111727"/>
<feOffset dy="3"/>
<feGaussianBlur stdDeviation="0.5"/>
<feColorMatrix type="matrix" values="0 0 0 0 0.0980392 0 0 0 0 0.113725 0 0 0 0 0.227451 0 0 0 0.04 0"/>
<feBlend mode="normal" in2="effect1_dropShadow_1903_111727" result="effect2_dropShadow_1903_111727"/>
<feColorMatrix in="SourceAlpha" type="matrix" values="0 0 0 0 0 0 0 0 0 0 0 0 0 0 0 0 0 0 127 0" result="hardAlpha"/>
<feOffset dy="2"/>
<feGaussianBlur stdDeviation="1"/>
<feColorMatrix type="matrix" values="0 0 0 0 0.0980392 0 0 0 0 0.113725 0 0 0 0 0.227451 0 0 0 0.04 0"/>
<feBlend mode="normal" in2="effect2_dropShadow_1903_111727" result="effect3_dropShadow_1903_111727"/>
<feBlend mode="normal" in="SourceGraphic" in2="effect3_dropShadow_1903_111727" result="shape"/>
</filter>
</defs>
</svg>
