<svg width="51" height="38" viewBox="0 0 51 38" fill="none" xmlns="http://www.w3.org/2000/svg">
<g filter="url(#filter0_ddd_1903_111728)">
<rect x="5" y="4" width="41" height="28" rx="4" fill="white"/>
<path d="M30.3518 26.0017C30.2483 26.0056 30.1443 26.0076 30.0398 26.0076C25.5 25.5002 22.5 21.9225 22.5 17.5002C22.5 13.5002 25.5 11.0002 30.0398 9.99325C30.1436 9.99325 30.2469 9.9952 30.3496 9.99908C30.4531 9.99515 30.5571 9.99316 30.6616 9.99316C35.1019 9.99316 38.7015 13.5781 38.7015 18.0003C38.7015 22.4226 35.1019 26.0075 30.6616 26.0075C30.5579 26.0075 30.4546 26.0055 30.3518 26.0017Z" fill="#FF5F00"/>
<path fill-rule="evenodd" clip-rule="evenodd" d="M25.5003 24.1397C24.1037 25.3055 22.3035 26.0075 20.3387 26.0075C15.8984 26.0075 12.2988 22.4226 12.2988 18.0003C12.2988 13.5781 15.8984 9.99316 20.3387 9.99316C22.3035 9.99316 24.1037 10.6951 25.5003 11.861C23.7408 13.3298 22.622 15.5349 22.622 18.0003C22.622 20.4657 23.7408 22.6709 25.5003 24.1397Z" fill="#EB001B"/>
<path fill-rule="evenodd" clip-rule="evenodd" d="M25.5 24.1397C27.2595 22.6709 28.3782 20.4657 28.3782 18.0003C28.3782 15.5349 27.2595 13.3298 25.5 11.861C26.8966 10.6951 28.6968 9.99316 30.6616 9.99316C35.1019 9.99316 38.7014 13.5781 38.7014 18.0003C38.7014 22.4226 35.1019 26.0075 30.6616 26.0075C28.6968 26.0075 26.8966 25.3055 25.5 24.1397Z" fill="#F79E1B"/>
</g>
<defs>
<filter id="filter0_ddd_1903_111728" x="0" y="0" width="51" height="38" filterUnits="userSpaceOnUse" color-interpolation-filters="sRGB">
<feFlood flood-opacity="0" result="BackgroundImageFix"/>
<feColorMatrix in="SourceAlpha" type="matrix" values="0 0 0 0 0 0 0 0 0 0 0 0 0 0 0 0 0 0 127 0" result="hardAlpha"/>
<feOffset dy="1"/>
<feGaussianBlur stdDeviation="2.5"/>
<feColorMatrix type="matrix" values="0 0 0 0 0.0980392 0 0 0 0 0.113725 0 0 0 0 0.227451 0 0 0 0.07 0"/>
<feBlend mode="normal" in2="BackgroundImageFix" result="effect1_dropShadow_1903_111728"/>
<feColorMatrix in="SourceAlpha" type="matrix" values="0 0 0 0 0 0 0 0 0 0 0 0 0 0 0 0 0 0 127 0" result="hardAlpha"/>
<feMorphology radius="2" operator="erode" in="SourceAlpha" result="effect2_dropShadow_1903_111728"/>
<feOffset dy="3"/>
<feGaussianBlur stdDeviation="0.5"/>
<feColorMatrix type="matrix" values="0 0 0 0 0.0980392 0 0 0 0 0.113725 0 0 0 0 0.227451 0 0 0 0.04 0"/>
<feBlend mode="normal" in2="effect1_dropShadow_1903_111728" result="effect2_dropShadow_1903_111728"/>
<feColorMatrix in="SourceAlpha" type="matrix" values="0 0 0 0 0 0 0 0 0 0 0 0 0 0 0 0 0 0 127 0" result="hardAlpha"/>
<feOffset dy="2"/>
<feGaussianBlur stdDeviation="1"/>
<feColorMatrix type="matrix" values="0 0 0 0 0.0980392 0 0 0 0 0.113725 0 0 0 0 0.227451 0 0 0 0.04 0"/>
<feBlend mode="normal" in2="effect2_dropShadow_1903_111728" result="effect3_dropShadow_1903_111728"/>
<feBlend mode="normal" in="SourceGraphic" in2="effect3_dropShadow_1903_111728" result="shape"/>
</filter>
</defs>
</svg>
