<svg width="22" height="19" viewBox="0 0 22 19" fill="none" xmlns="http://www.w3.org/2000/svg">
<path d="M7.25 7.75V4.75C7.25 3.75544 7.64509 2.80161 8.34835 2.09835C9.05161 1.39509 10.0054 1 11 1C11.9946 1 12.9484 1.39509 13.6517 2.09835C14.3549 2.80161 14.75 3.75544 14.75 4.75V7.75M18.575 4.75H3.425C3.24045 4.75087 3.06254 4.81891 2.92451 4.94141C2.78648 5.06391 2.69778 5.23249 2.675 5.41562L1.34375 17.4156C1.33191 17.5202 1.34221 17.6261 1.37396 17.7264C1.40572 17.8267 1.45823 17.9192 1.52808 17.9979C1.59794 18.0766 1.68357 18.1397 1.77941 18.1831C1.87525 18.2266 1.97916 18.2494 2.08438 18.25H19.9156C20.0209 18.2494 20.1248 18.2266 20.2206 18.1831C20.3164 18.1397 20.4021 18.0766 20.4719 17.9979C20.5418 17.9192 20.5943 17.8267 20.626 17.7264C20.6578 17.6261 20.6681 17.5202 20.6563 17.4156L19.325 5.41562C19.3022 5.23249 19.2135 5.06391 19.0755 4.94141C18.9375 4.81891 18.7596 4.75087 18.575 4.75Z" stroke="#1E1E1E" stroke-linecap="round" stroke-linejoin="round"/>
</svg>
