<svg width="63" height="51" viewBox="0 0 63 51" fill="none" xmlns="http://www.w3.org/2000/svg">
<path d="M1.12499 37.8906C1.12499 44.1815 6.22474 49.2812 12.5156 49.2812C18.8065 49.2812 23.9062 44.1815 23.9062 37.8906C23.9062 31.5998 18.8065 26.5 12.5156 26.5C6.22474 26.5 1.12499 31.5998 1.12499 37.8906ZM1.12499 37.8906L1.12497 8.78132C1.12079 7.78292 1.31435 6.79358 1.69449 5.87037C2.07463 4.94716 2.63382 4.10837 3.3398 3.40239C4.04578 2.69641 4.88457 2.13722 5.80778 1.75708C6.73098 1.37694 7.72033 1.18338 8.71872 1.18757M61.875 37.8906C61.875 44.1815 56.7752 49.2812 50.4844 49.2812C44.1935 49.2812 39.0937 44.1815 39.0937 37.8906C39.0937 31.5998 44.1935 26.5 50.4844 26.5C56.7752 26.5 61.875 31.5998 61.875 37.8906ZM61.875 37.8906V8.78132C61.8792 7.78292 61.6856 6.79358 61.3055 5.87037C60.9253 4.94716 60.3661 4.10837 59.6602 3.40239C58.9542 2.69641 58.1154 2.13722 57.1922 1.75708C56.269 1.37694 55.2796 1.18338 54.2812 1.18757M23.9062 36.625H39.0937" stroke="#A94DBF" stroke-width="1.5" stroke-linecap="round" stroke-linejoin="round"/>
</svg>
