<svg width="68" height="43" viewBox="0 0 68 43" fill="none" xmlns="http://www.w3.org/2000/svg">
<path d="M22.4375 31.25C30.739 31.25 37.4688 24.5203 37.4688 16.2188C37.4688 7.91722 30.739 1.1875 22.4375 1.1875C14.136 1.1875 7.40625 7.91722 7.40625 16.2188C7.40625 24.5203 14.136 31.25 22.4375 31.25ZM22.4375 31.25C18.3554 31.25 14.3333 32.2313 10.7108 34.1131C7.08839 35.995 3.97203 38.7209 1.625 42.0608M22.4375 31.25C26.5196 31.25 30.5417 32.2313 34.1642 34.1131C37.7866 35.995 40.903 38.7209 43.25 42.0608M41.9204 1.73672C43.2492 1.37634 44.6195 1.19169 45.9962 1.1875C49.9827 1.1875 53.806 2.77114 56.6249 5.59005C59.4438 8.40896 61.0275 12.2322 61.0275 16.2188C61.0275 20.2053 59.4438 24.0285 56.6249 26.8474C53.806 29.6664 49.9827 31.25 45.9962 31.25C50.0786 31.2475 54.1015 32.2287 57.7243 34.1105C61.3471 35.9924 64.4632 38.7195 66.8086 42.0609" stroke="#A94DBF" stroke-width="1.5" stroke-linecap="round" stroke-linejoin="round"/>
</svg>
