<?xml version="1.0" encoding="utf-8"?>
<!-- Generator: Adobe Illustrator 24.0.3, SVG Export Plug-In . SVG Version: 6.00 Build 0)  -->
<svg version="1.1" id="Calque_1" xmlns="http://www.w3.org/2000/svg" xmlns:xlink="http://www.w3.org/1999/xlink" x="0px" y="0px"
	 width="164px" height="278px" viewBox="0 0 164 278" style="enable-background:new 0 0 164 278;" xml:space="preserve">
<style type="text/css">
	.st0{fill:#FFFFFF;}
</style>
<path class="st0" d="M119.7,243v-5.9h7.6v26.2c0,9.1-5.7,14.6-15.2,14.6c-7.5,0-12.9-2.8-14.4-8.1l7.3-3.1c1.1,4,3.3,4.9,7.5,4.9
	c4.9,0,7.3-2.1,7.3-7v-5.7c-1.9,4-5.4,6.2-10,6.2c-7.5,0-12.3-5.9-12.3-14.5c0-8.5,4.7-14.3,12.1-14.3
	C114.2,236.6,117.7,238.9,119.7,243z M7.7,236.6v29.9H0.8v-29.9H7.7z M34.1,236.6c6.9,0,10.4,4.1,10.4,12.4v17.5H37v-17.1
	c0-3.9-2-5.9-5.6-5.9c-4.2,0-6.8,3-6.8,9v14h-7.5v-29.3h7.5v6.8C25.9,239.3,28.9,236.6,34.1,236.6z M75.8,244.9l-6.6,1.6
	c-0.4-3.6-1.8-4.5-5.5-4.5c-2.8,0-4.2,1.1-4.2,3c0,1.6,0.8,2.6,3.6,3l5.9,0.9c4.8,0.6,7.7,3.5,7.7,8.2c0,5.9-4.7,9.4-12.6,9.4
	c-7.4,0-11.9-3.8-12.6-8.5l7-1.9c0.5,3.8,2.5,4.7,6.1,4.7c2.9,0,4.7-1,4.7-2.9c0-1.8-0.8-2.6-4.2-3.2l-4.8-0.8
	c-5.1-0.8-8.2-3.7-8.2-8.6c0-5.5,4.3-8.7,11.5-8.7C71.3,236.6,74.9,239.8,75.8,244.9z M90.5,236.6v29.9h-6.9v-29.9H90.5z M164,248.9
	v17.5h-7.5v-17.1c0-3.9-2-5.9-5.6-5.9c-4.2,0-6.8,3-6.8,9v14h-7.5v-29.3h7.5v6.8c1.4-4.7,4.4-7.4,9.6-7.4
	C160.5,236.6,164,240.7,164,248.9z M112.2,243.5c-5.4,0-8,2.6-8,8.1c0,5.5,2.6,8.1,7.9,8.1c5.5,0,8.2-2.6,8.2-8.1
	C120.3,246.1,117.7,243.5,112.2,243.5z M5.4,222.8c2.9,0,4.6,1.6,4.6,4.5c0,3-1.7,4.7-4.6,4.7s-4.6-1.7-4.6-4.7
	C0.8,224.4,2.4,222.8,5.4,222.8z M88.2,222.8c2.9,0,4.6,1.6,4.6,4.5c0,3-1.7,4.7-4.6,4.7c-2.9,0-4.6-1.7-4.6-4.7
	C83.6,224.4,85.2,222.8,88.2,222.8z"/>
<path class="st0" d="M164.4-0.1v157.7L82.1,203l-82.2-45.4V-0.1H164.4z M156.6,7.6H7.7v145.5l74.5,41l74.5-41V7.6z M86.3,71.4
	c13.4,0,20.5,9.2,20.7,21.4l0,0.7v27.1h8.7v7.7H90.2v-7.7h8.6V93.6c0-8.6-4.1-14.2-13.2-14.2c-6,0-12.6,3.1-19.4,11.5l-0.6,0.8v28.9
	h8.6v7.7H48.5v-7.7h8.8V80.1h-8.8v-7.6h17.1v9.3C70.5,76.7,77.6,71.4,86.3,71.4z M61.2,48.7c3.8,0,6.9,3.1,6.9,6.9
	c0,3.6-3.1,6.7-6.9,6.7c-3.8,0-6.9-3.1-6.9-6.7C54.3,51.7,57.3,48.7,61.2,48.7z"/>
</svg>
