<?xml version="1.0" encoding="utf-8"?>
<!-- Generator: Adobe Illustrator 24.0.3, SVG Export Plug-In . SVG Version: 6.00 Build 0)  -->
<svg version="1.1" id="Calque_1" xmlns="http://www.w3.org/2000/svg" xmlns:xlink="http://www.w3.org/1999/xlink" x="0px" y="0px"
	 width="274.2px" height="77.9px" viewBox="0 0 274.2 77.9" style="enable-background:new 0 0 274.2 77.9;" xml:space="preserve">
<style type="text/css">
	.st0{clip-path:url(#SVGID_2_);}
	.st1{clip-path:url(#SVGID_4_);}
	.st2{fill:#FFFFFF;}
</style>
<g>
	<defs>
		<rect id="SVGID_1_" width="63.2" height="77.9"/>
	</defs>
	<clipPath id="SVGID_2_">
		<use xlink:href="#SVGID_1_"  style="overflow:visible;"/>
	</clipPath>
	<g class="st0">
		<path d="M62.9,0v60.4L31.5,77.7L0,60.4V0H62.9z M60,3H3v55.7l28.5,15.7L60,58.6V3z M33.1,27.3c5.1,0,7.8,3.5,7.9,8.2l0,0.3v10.4
			h3.3v3h-9.8v-3h3.3V35.9c0-3.3-1.6-5.4-5-5.4c-2.3,0-4.8,1.2-7.4,4.4l-0.2,0.3v11.1h3.3v3h-9.8v-3H22V30.7h-3.4v-2.9h6.5v3.5
			C27,29.4,29.7,27.3,33.1,27.3z M23.5,18.7c1.5,0,2.6,1.2,2.6,2.6c0,1.4-1.2,2.6-2.6,2.6c-1.5,0-2.6-1.2-2.6-2.6
			C20.8,19.8,22,18.7,23.5,18.7z"/>
	</g>
</g>
<g>
	<defs>
		<rect id="SVGID_3_" x="73.2" width="201" height="60"/>
	</defs>
	<clipPath id="SVGID_4_">
		<use xlink:href="#SVGID_3_"  style="overflow:visible;"/>
	</clipPath>
	<g class="st1">
		<path d="M215.6,58.8v0.8c0,0.2,0.1,0.3,0.3,0.3h17.4c0.1,0,0.2,0,0.2-0.1L259.7,33c0.1-0.1,0.1-0.1,0.2-0.1h1.5
			c0.1,0,0.2,0,0.2-0.1l12.5-6.4v-8h-2.5v-0.6h1v-1h1V9h-0.4V8.3h1v-8h-17.9l-3.8,3.9c-2.4-2.5-5.8-3.9-10-3.9h-10.6l-1.9,2v-2h-8.3
			l-3.9,4.2l-2.4-4.2H206l-5.8,6.3l-2.2-6.3h-9.4l-7,7.4c-0.6-4.5-4.2-7.4-9.6-7.4h-11.2l-3.6,3.9c-2.2-2.7-5.8-4.3-10-4.3
			s-8,1.7-10.5,4.6l-11.7,11.8l-5.6-16.1H110L94.1,16.9V0.3h-8.3L73.3,6.7c-0.1,0.1-0.1,0.1-0.1,0.2v25.6c0,0.2,0.1,0.3,0.3,0.3
			c0.3,0,0.4,0.4,0.2,0.6l-0.4,0.4c-0.1,0.1-0.1,0.2-0.1,0.2v25.6c0,0.2,0.1,0.3,0.3,0.3h12.4c2.9,0,5-1.1,6.7-2.9l1.5-1.5
			c0.2-0.2,0.6-0.1,0.6,0.2v3.9c0,0.2,0.1,0.3,0.3,0.3h7.8c0.1,0,0.2,0,0.3-0.1l2.5-3.1c0.2-0.2,0.5-0.2,0.6,0.1l1.2,2.9
			c0.1,0.1,0.2,0.2,0.3,0.2h14.4c0.1,0,0.2,0,0.2-0.1l4.8-4.8l0,0h3.1c0.1,0,0.3,0.1,0.3,0.2l1.5,4.5c0,0.1,0.2,0.2,0.3,0.2h18.2
			c4.4,0,7.8-1.7,10.3-4.3l3-3c0.2-0.2,0.6-0.1,0.6,0.2v6.7c0,0.2,0.1,0.3,0.3,0.3h17.4c0.1,0,0.2,0,0.2-0.1l0.6-0.6
			c0.2-0.2,0.6-0.1,0.6,0.2v0.2c0,0.2,0.1,0.3,0.3,0.3h7.8c0.1,0,0.2,0,0.2-0.1l2.7-2.6c0.2-0.2,0.4-0.1,0.5,0.1l1,2.4
			c0.1,0.1,0.2,0.2,0.3,0.2h16.9c0.1,0,0.2,0,0.2-0.1l1.3-1.3C215.2,58.4,215.6,58.5,215.6,58.8L215.6,58.8z"/>
		<path class="st2" d="M101.8,20h-9.3V2h-5.1v22.8h14.4V20z"/>
		<path class="st2" d="M119.1,19.8l1.7,4.9h5.4L118.3,2h-7.2l-7.9,22.8h5.4l1.7-4.9H119.1z M113.4,10.3l1.3-4.1l1.2,4.1l1.7,4.9
			h-5.8L113.4,10.3L113.4,10.3z"/>
		<path class="st2" d="M158,24.7V12.4h-11.1v4.3h6.1c-0.5,2.7-3.1,4-5.8,4c-4.7,0-6.9-2.2-6.9-7.3c0-4.5,2.4-7,6.8-7
			c3.1,0,5,1.5,5.9,4.6l4.7-2.1c-1.1-4.4-5.3-7.1-10.5-7.1c-6.9,0-12.2,4.9-12.2,11.8s5.1,11.7,10.9,11.7c2.4,0,6.2-0.6,7.7-5.1
			l0,4.8H158L158,24.7z"/>
		<path class="st2" d="M167.4,16h3.5l3.6,8.7h5.9l-3.8-7l-1.8-2c3.3-0.8,5.2-3.3,5.2-6.7c0-4.2-3-7-8-7h-9.6v22.8h5.1V16L167.4,16z
			 M167.4,6.4h4.2c2.4,0,3.3,0.7,3.3,2.6c0,1.9-0.9,2.7-3.3,2.7h-4.2V6.4z"/>
		<path class="st2" d="M204.7,24.7L196.8,2h-7.2l-7.9,22.8h5.4l1.7-4.9h8.8l1.7,4.9H204.7L204.7,24.7z M190.3,15.3l1.7-4.9l1.3-4.1
			l1.2,4.1l1.7,4.9H190.3L190.3,15.3z"/>
		<path class="st2" d="M223.2,18.1l-1.5-3.2L214.4,2h-6.8v22.8h5V8l1.3,2.9l7.8,13.9h6.6V2h-5V18.1z"/>
		<path class="st2" d="M242.4,2h-9v22.8h9c7.2,0,11.8-4.6,11.8-11.4S249.6,2,242.4,2z M242.3,20h-3.8V6.7h3.8c5,0,6.6,1.6,6.6,6.7
			S247.3,20,242.3,20L242.3,20z"/>
		<path class="st2" d="M272.6,6.7V2h-14.7v22.8h14.7V20h-9.7v-4.8h9.1v-4.6h-9.1v-4H272.6z"/>
		<path class="st2" d="M99.8,40.3c3.6-0.9,4.9-2.9,4.9-5.4c0-3.5-2.7-5.8-7.2-5.8H87.4v22.8h11.1c4.1,0,6.8-2.4,6.8-6.4
			C105.3,43.3,104.2,40.9,99.8,40.3L99.8,40.3z M92.4,33.6h4.4c1.5,0,2.6,0.7,2.6,2.2c0,1.7-0.8,2.5-2.4,2.5h-4.6V33.6L92.4,33.6z
			 M97.3,47.3h-4.9v-4.8h4.7c1.8,0,3,0.7,3,2.3C100,46.6,99.1,47.3,97.3,47.3z"/>
		<path class="st2" d="M121.4,42.8c3.3-0.8,5.2-3.3,5.2-6.7c0-4.2-3-7-8-7h-9.6v22.8h5.1v-8.7h3.5l3.6,8.7h5.9l-3.8-7L121.4,42.8
			L121.4,42.8z M118.2,38.9H114v-5.3h4.2c2.4,0,3.3,0.7,3.3,2.6C121.5,38.1,120.6,38.9,118.2,38.9z"/>
		<path class="st2" d="M136.2,29.1l-7.9,22.8h5.4l1.7-4.9h8.8l1.7,4.9h5.4l-7.9-22.8H136.2L136.2,29.1z M136.9,42.4l1.7-4.9l1.3-4.1
			l1.2,4.1l1.7,4.9H136.9L136.9,42.4z"/>
		<path class="st2" d="M163.2,29.1h-9v22.8h9c7.2,0,11.8-4.6,11.8-11.4S170.4,29.1,163.2,29.1z M163,47.1h-3.8V33.8h3.8
			c5,0,6.6,1.6,6.6,6.7C169.7,45.5,168.1,47.1,163,47.1L163,47.1z"/>
		<path class="st2" d="M178.6,51.9h14.7v-4.7h-9.7v-4.8h9.1v-4.6h-9.1v-4h9.7v-4.7h-14.7V51.9z"/>
		<path class="st2" d="M210.3,42.8c3.3-0.8,5.2-3.3,5.2-6.7c0-4.2-3-7-8-7h-9.6v22.8h5.1v-8.7h3.5l3.6,8.7h5.9l-3.8-7L210.3,42.8
			L210.3,42.8z M207.1,38.9h-4.2v-5.3h4.2c2.4,0,3.3,0.7,3.3,2.6C210.4,38.1,209.4,38.9,207.1,38.9z"/>
		<path class="st2" d="M224.6,29.1h-5.2v22.8h5.2V29.1z"/>
		<path class="st2" d="M229.8,51.9h14.7v-4.7h-9.7v-4.8h9.1v-4.6h-9.1v-4h9.7v-4.7h-14.7V51.9z"/>
	</g>
</g>
</svg>
