<?xml version="1.0" encoding="utf-8"?>
<!-- Generator: Adobe Illustrator 24.0.3, SVG Export Plug-In . SVG Version: 6.00 Build 0)  -->
<svg version="1.1" id="Calque_1" xmlns="http://www.w3.org/2000/svg" xmlns:xlink="http://www.w3.org/1999/xlink" x="0px" y="0px"
	 width="476.6px" height="142px" viewBox="0 0 476.6 142" style="enable-background:new 0 0 476.6 142;" xml:space="preserve">
<style type="text/css">
	.st0{fill:#901F2E;}
	.st1{fill:#FFDD66;}
</style>
<path class="st0" d="M337.6,138.3v2c0,0.4,0.3,0.8,0.8,0.8h41.3c0.2,0,0.4-0.1,0.6-0.2l61.9-63.3c0.1-0.1,0.3-0.2,0.6-0.2h3.6
	c0.2,0,0.4-0.1,0.6-0.3l29.6-15V43.2h-6v-1.3h2.3v-2.3h2.3V21.2h-0.9v-1.7h2.3V0.8h-42.4l-9.1,9.3c-5.6-5.9-13.8-9.3-23.7-9.3h-25.2
	l-4.6,4.6V0.8H352l-9.2,9.9l-5.6-9.9h-22.3L301,15.5l-5.1-14.8h-22.4l-16.6,17.3C255.5,7.5,247,0.8,234.2,0.8h-26.6l-8.5,9.3
	c-5.3-6.3-13.7-10-23.7-10s-19,4.1-24.9,10.7l-27.7,27.8L109.6,0.8H87.2L49.6,39.7V0.8H29.9L0.2,15.9C0.1,16,0,16.2,0,16.4v60.1
	c0,0.4,0.3,0.8,0.8,0.8c0.7,0,1.1,0.9,0.5,1.4l-1,1C0.1,79.7,0,79.9,0,80.2v60.1c0,0.4,0.3,0.8,0.8,0.8h29.5
	c6.9,0,11.9-2.6,15.9-6.8l3.6-3.6c0.5-0.5,1.3-0.1,1.3,0.6v9.1c0,0.4,0.3,0.8,0.8,0.8h18.5c0.2,0,0.5-0.1,0.6-0.3l5.9-7.2
	c0.4-0.5,1.1-0.4,1.3,0.2l2.9,6.8c0.1,0.3,0.4,0.5,0.7,0.5H116c0.2,0,0.4-0.1,0.6-0.2l11.3-11.4l0,0h7.3c0.3,0,0.6,0.2,0.7,0.5
	l3.6,10.6c0.1,0.3,0.4,0.5,0.7,0.5h43.2c10.4,0,18.4-3.9,24.5-10.1l7-7c0.5-0.5,1.3-0.1,1.3,0.6v15.7c0,0.4,0.3,0.8,0.8,0.8h41.3
	c0.2,0,0.4-0.1,0.6-0.2l1.5-1.5c0.5-0.5,1.3-0.1,1.3,0.5v0.4c0,0.4,0.3,0.8,0.8,0.8h18.6c0.2,0,0.4-0.1,0.5-0.2l6.5-6.1
	c0.4-0.4,1-0.2,1.2,0.3l2.3,5.5c0.1,0.3,0.4,0.5,0.7,0.5h40.2c0.2,0,0.4-0.1,0.6-0.2l3-3.1C336.8,137.2,337.6,137.6,337.6,138.3
	L337.6,138.3z"/>
<path class="st1" d="M67.9,47H45.8V4.6H33.7v53.5h34.2V47z"/>
<path class="st1" d="M108.8,46.5l4,11.6h12.8L106.9,4.6h-17L71.1,58.1h12.8l4-11.6H108.8z M95.4,24.2l3-9.6l2.9,9.6l4,11.6H91.4
	L95.4,24.2L95.4,24.2z"/>
<path class="st1" d="M201.1,58.1V29.1h-26.4v10.2h14.6c-1.3,6.3-7.2,9.3-13.9,9.3c-11.1,0-16.5-5.3-16.5-17.2
	c0-10.6,5.8-16.5,16.1-16.5c7.3,0,11.8,3.4,14.1,10.7l11.1-5c-2.7-10.3-12.5-16.8-24.9-16.8c-16.5,0-28.9,11.5-28.9,27.6
	s12,27.5,25.9,27.5c5.7,0,14.7-1.4,18.3-12.1l-0.1,11.3H201.1L201.1,58.1z"/>
<path class="st1" d="M223.5,37.7h8.3l8.5,20.4h14l-9.1-16.5l-4.3-4.7c7.8-2,12.3-7.7,12.3-15.8c0-9.9-7.1-16.5-19.1-16.5h-22.8v53.5
	h12V37.7L223.5,37.7z M223.5,15.1h9.9c5.6,0,7.8,1.8,7.8,6.2s-2.2,6.3-7.8,6.3h-9.9V15.1z"/>
<path class="st1" d="M311.8,58.1L293.1,4.6h-17l-18.8,53.5h12.8l4-11.6h21l4,11.6H311.8L311.8,58.1z M277.7,35.9l4-11.6l3-9.6
	l2.9,9.6l4,11.6H277.7L277.7,35.9z"/>
<path class="st1" d="M355.8,42.5l-3.7-7.5L334.9,4.6h-16.2v53.5h12V18.7l3,6.8l18.4,32.6h15.6V4.6h-12V42.5z"/>
<path class="st1" d="M401.3,4.6h-21.4v53.5h21.4c17.1,0,27.9-10.7,27.9-26.8S418.5,4.6,401.3,4.6z M401,47H392V15.7h9.1
	c12,0,15.7,3.8,15.7,15.7C416.7,43.3,413,47,401,47L401,47z"/>
<path class="st1" d="M472.8,15.7V4.6H438v53.5h34.8V47h-22.9V35.7h21.6V25h-21.6v-9.3H472.8z"/>
<path class="st1" d="M63.2,94.6c8.5-2.1,11.5-6.8,11.5-12.6c0-8.3-6.3-13.7-17.1-13.7H33.7v53.5h26.4c9.7,0,16.2-5.6,16.2-15.1
	C76.3,101.7,73.6,96.2,63.2,94.6L63.2,94.6z M45.6,79h10.4c3.6,0,6.2,1.6,6.2,5.1c0,4-1.9,5.9-5.7,5.9H45.6V79L45.6,79z M57.1,111.2
	H45.6V99.8h11.1c4.2,0,7,1.8,7,5.4C63.7,109.4,61.5,111.2,57.1,111.2z"/>
<path class="st1" d="M114.3,100.7c7.8-2,12.3-7.7,12.3-15.8c0-9.9-7.1-16.5-19.1-16.5H84.8v53.5h12v-20.4h8.3l8.5,20.4h14l-9.1-16.5
	L114.3,100.7L114.3,100.7z M106.8,91.4h-9.9V78.8h9.9c5.6,0,7.8,1.8,7.8,6.2C114.6,89.4,112.4,91.4,106.8,91.4z"/>
<path class="st1" d="M149.5,68.3l-18.8,53.5h12.8l4-11.6h21l4,11.6h12.8l-18.7-53.5H149.5L149.5,68.3z M151,99.6l4-11.6l3-9.6
	l2.9,9.6l4,11.6H151L151,99.6z"/>
<path class="st1" d="M213.4,68.3H192v53.5h21.4c17.1,0,27.9-10.7,27.9-26.8C241.3,79,230.6,68.3,213.4,68.3z M213.1,110.8h-9.1V79.4
	h9.1c12,0,15.7,3.8,15.7,15.7C228.8,107,225.1,110.8,213.1,110.8L213.1,110.8z"/>
<path class="st1" d="M250.1,121.9h34.8v-11.1H262V99.5h21.6V88.8H262v-9.3h22.9V68.3h-34.8V121.9z"/>
<path class="st1" d="M325,100.7c7.8-2,12.3-7.7,12.3-15.8c0-9.9-7.1-16.5-19.1-16.5h-22.8v53.5h12v-20.4h8.3l8.5,20.4h14l-9.1-16.5
	L325,100.7L325,100.7z M317.5,91.4h-9.9V78.8h9.9c5.6,0,7.8,1.8,7.8,6.2C325.4,89.4,323.1,91.4,317.5,91.4z"/>
<path class="st1" d="M359.1,68.3h-12.3v53.5h12.3V68.3z"/>
<path class="st1" d="M371.3,121.9h34.8v-11.1h-22.9V99.5h21.6V88.8h-21.6v-9.3h22.9V68.3h-34.8V121.9z"/>
</svg>
