<?xml version="1.0" encoding="utf-8"?>
<!-- Generator: Adobe Illustrator 24.0.3, SVG Export Plug-In . SVG Version: 6.00 Build 0)  -->
<svg version="1.1" id="Calque_1" xmlns="http://www.w3.org/2000/svg" xmlns:xlink="http://www.w3.org/1999/xlink" x="0px" y="0px"
	 width="1920px" height="1080px" viewBox="0 0 1920 1080" style="enable-background:new 0 0 1920 1080;" xml:space="preserve">
<style type="text/css">
	.st0{fill:#AA4FC0;}
</style>
<g>
	<path class="st0" d="M952.5-56.5c2.9,21.3,7.2,44.6,16.1,65c15.9,36.3,43.2,67.5,81,94.5c22.9,16.3,48.6,30.4,75.6,43.3
		c49.9,23.9,100.3,47.7,150.6,71.2c25.4,11.9,51.4,23,77.2,34.5c12,5.3,24.8,9.7,36.6,15.3c39.2,18.9,74.1,41.4,108.6,64.3
		c12.3,8.2,23.9,16.9,35.8,25.4c17.6,12.6,35.2,25.1,52.7,37.7c5.4,3.8,10.6,7.8,16,11.7c11.3,8.2,22.2,16.9,34.1,24.5
		c29.4,18.8,62.8,33,99.2,44.2c30.8,9.4,62.8,16.4,95.7,21.9c48.9,8.1,121.4,15.7,171.6,16.9V-56.5H952.5L952.5-56.5z"/>
</g>
<g>
	<path class="st0" d="M1920.9,895.8c14.6,0.3,28.9-0.9,43.1-4c10.1-2.3,19.8-5.6,28.5-11.2c6.5-4.4,10.3-10,10-18
		c-0.6-13.7-4.8-26-13.1-37c-9.8-13.1-22.6-22.9-36.6-31.3c-21.2-12.8-44-22.1-67.2-30.2c-33.9-12-68.3-23.3-102.1-35.5
		c-43.3-15.4-85.3-33.5-125.9-54.9c-30.8-16.3-58.2-36.6-81.1-62.7c-30.7-35.2-61.3-70-94.1-103.2c-16.8-17-34.2-33.3-53.4-47.8
		c-11.5-8.7-23.8-16.6-37.8-21.5c-11.5-3.9-23.2-5.4-34.5,0.3c-9.3,4.7-14.2,12.1-14.6,22.4c-0.3,8.2,2.6,15.7,7,22.7
		c7.8,12.8,18.8,22.7,30.3,32.1c21.8,17.7,45.6,33,69.2,48.2c37.3,24.1,75,47.9,112.5,71.9c23.5,15.1,44.3,33,63.2,53.1
		c12.3,13.1,24.4,26.5,37.2,39.2c14.6,14.8,29.6,29.4,44.8,43.6c12,11.2,24.3,22.1,36.9,32.4c24.6,20.1,49.6,39.5,74.4,59.4
		c7,5.6,14.2,10.6,22.4,14.3C1865.5,889.9,1892.7,895.2,1920.9,895.8"/>
</g>
<g>
	<path class="st0" d="M1115.5,1167c-14.4-105.8,8.6-170.7-423.9-170.7S397.5,929,333.9,909.7c-63.4-19.2-92.2-31.2-138.5-79.3
		c-81.5-84.9-20.3-108.3-98-218.8C48.6,542.1-52.4,506-110,506v661H1115.5z"/>
</g>
<g>
	<path class="st0" d="M365.5,402.1c0,0,23.4,46.8,117.2,137.9c93.8,91,168.8,125.9,257.9,149.2c89.1,23.3,173.5,66,173.5,66
		s89.1,58.2,121.9,52.4c32.8-5.8,60.9-48.5,0-72.8c-61-24.2-67.2,2.9-192.3-49.5c-125.1-52.4-131.3-89.2-197-194
		C581.2,386.6,459.2,243.1,365.4,278C271.6,312.9,365.4,417.7,365.5,402.1"/>
</g>
</svg>
