<?xml version="1.0" encoding="utf-8"?>
<!-- Generator: Adobe Illustrator 24.0.3, SVG Export Plug-In . SVG Version: 6.00 Build 0)  -->
<svg version="1.1" id="Calque_1" xmlns="http://www.w3.org/2000/svg" xmlns:xlink="http://www.w3.org/1999/xlink" x="0px" y="0px"
	 width="1438px" height="1438.7px" viewBox="0 0 1438 1438.7" style="enable-background:new 0 0 1438 1438.7;" xml:space="preserve"
	>
<style type="text/css">
	.st0{fill:#A852BD;}
</style>
<path class="st0" d="M1891.8-356.3c10.2-11.9,18.8-25,28.1-37.4l-382.5-530.2l-10,7.2c-68.8,49.6-137.7,99.2-206.5,148.8
	c-15.6,11.3-31.2,22.6-46.9,33.7c-4.3,3-6.6,6.1-6.6,11.1c0.1,5.9-0.8,11.9-1.1,17.8c-2.1,44.4,0.5,88.2,4.8,131.8
	c2,20.3,3,40.5-1.4,61.4c-1.6,7.8-2.7,15.7-3.1,23.4c-1.3,27.2-5,54.4-12.3,81.4c-4,14.8-8.7,29.4-16.7,43.4
	c-17.3,30.4-29.1,62.2-31,95.8c-1.8,31.4,8.9,57,32.7,76.2c10.7,8.6,22.6,15.3,35.3,20.9c3.6,1.6,7.6,3.1,10.4,5.7
	c20.1,18.4,44.2,30.9,71.2,38.8c60.3,17.4,120.9,34.4,181.4,51.5c30.7,8.7,61.5,17,94.2,19.8c35.8,3,66.8-8.5,93.6-35.2
	c15.6-15.6,28.2-33.1,40-51.2c34.7-53.5,63.9-109.5,94.6-164.8C1869.4-323.5,1878.6-340.8,1891.8-356.3 M2381.1,289.5
	c7.4-3.9,14.6-8.2,22.5-12.7l-55.2-76.5c-3.3,2.4-6.1,4.2-8.7,6.3c-6.3,5.1-12.2,10.6-18.8,15.3c-25.3,18-50.4,36.2-76.2,53.4
	c-26.9,17.9-54.2,35.3-81.9,52c-30,18.1-60.5,35.3-91,52.4c-32.3,18.1-64.7,35.9-97.2,53.5c-37.8,20.5-75.8,40.7-113.7,61.2
	c-55,29.7-110,59.7-165.1,89.3c-13.9,7.5-28,15.3-42.7,20.4c-32.7,11.1-66,18.3-99.7,19c-26.7,0.6-50.9-4.4-70.5-20.7
	c-3.7-3.1-7.9-5.6-12-8.2c-18.8-12.3-38-24.2-56.4-36.9c-17.5-12.2-33-26.4-43.3-45.2c-1.6-3-2.3-6.7-2.3-10.3
	c0-6.8,1.8-13.9,1.3-20.6c-2.3-27.2-0.4-54.7,3.8-82.3c4.8-32.2,10.7-64.4,15.3-96.6c3.5-24.2,4.9-48.2-0.9-71.3
	c-6-23.9-20-41.3-42.3-52.3c-21.1-10.3-44.4-14.2-68.9-14.3c-54.4-0.3-104.7,16.1-150.8,49.5c-9.3,6.7-18.1,14.1-27.2,21
	c-28.3,21.4-54.1,45.6-79.3,70.3c-15.4,15.1-30.5,30.3-48.8,42.3c-9.3,6.1-18.3,12.9-26.7,20.1c-32.5,28.1-61.3,59.5-87.1,93.3
	c-12.7,16.8-26.3,32.7-42.6,46.7c-11.7,10.1-22.5,21.2-33.7,31.8c-25.5,24-50.7,48.2-76.7,71.7c-21.2,19.2-43,37.7-65.1,55.9
	c-24.1,19.9-48.3,40.1-73.5,58.6c-43.3,31.8-87.3,62.7-131.4,93.4c-26.8,18.7-54.2,36.6-81.6,54.5c-25.4,16.5-51,32.8-76.8,48.7
	c-24.4,14.9-49.2,29.3-73.9,43.6c-7.2,4.1-14.5,8.6-23,9.4c-12.4,1.2-24.7,3.4-37.1,4.3c-18.3,1.4-36.3,1.2-53.4-4
	c-23-6.9-36.9-21.4-37.9-45.6c-0.5-12.3,0.2-25,2.5-37.3c6.6-36.1,19.2-71.2,33.6-105.9c22.5-54.2,46.3-107.9,69.2-162
	c21.7-51.1,41.3-102.6,52.1-156c7-34.6,9-68.7,2.9-102.3c-4.9-26.8-6.2-54.3-5.3-82.2c0.3-10.1,2.4-19.8,6.9-29.6
	c12.5-27.8,27.7-54.4,44.9-80.1c47.3-70.8,99.5-138.4,153-205.2C422.9-46.3,437-61,448.4-77.3c31.3-44.8,65.4-87.6,102.1-128.7
	c3.3-3.6,6.2-7.5,9.2-11.3c-0.4-0.4-0.8-0.8-1.2-1.2c-2.6,1.9-5.2,3.7-7.8,5.6c-116.3,83.8-232.7,167.7-349,251.5
	c-3,2.2-6.1,4.4-8.6,7C179.3,59.8,165.5,74,152,88.5c-19,20.4-37.5,41.2-52.6,64.4c-12.3,19-19.4,38.2-15,59.6
	c4.8,23.3,8.1,47,11.8,70.6c0.7,4.5,1.4,9.2,0.7,13.7c-3.1,18.4-7,36.8-10.1,55.3c-5.6,32.8-11.1,65.7-11.8,98.4
	c-0.8,40.1-8.8,79.3-24.5,118.1C25.6,629.7-9.4,686.1-50.5,739.6c-51.3,66.8-110.8,126.4-176.7,180.1
	c-24.3,19.8-49.9,38.1-76.8,54.4c-30.3,18.5-61.9,34.1-94,48.6c-8.6,3.9-17.3,6.8-26.6,8.2c-45.4,6.8-90.4,8.9-135.1,6.5
	c-43.1-2.2-84.2-9.5-121.4-28.3c-4.9-2.5-10.4-4-16-5.2c-29.3-6.5-58.8-2.3-88.5,8c-4,1.4-7.8,3.3-12.3,5.3l458.2,635
	c8.9-8.7,17.3-16.8,25.5-25c38.3-38.4,72.8-79.8,105.6-122.4c39.9-51.9,80.7-103.1,124-152.6c49.1-56.1,105.3-104.8,166-148.4
	c29-20.8,59.1-40.3,89.1-59.6c18.1-11.7,36.2-23.4,56.2-31.7c85.5-35.3,170.9-71,256.5-106c48.4-19.8,96.5-40.4,143.2-64.5
	c65.5-33.7,130-69.4,193.6-106.8c41.5-24.4,82.9-49.2,126-70.5c35.4-17.5,71.8-31.8,109.8-40.3c8-1.8,14.4-0.8,21.2,2.1
	c36.4,15.3,72.9,30.5,109.6,45.3c28.4,11.5,56.4,23.6,81.6,40.3c6.7,4.4,15,7,23.1,9.3c14.2,4,29.2,5.3,44.4,5.3
	c46.1,0.3,90.7-11,134.6-29.3c57.2-23.9,109.2-57.9,162.1-90.4c17.5-10.8,34.5-22.4,52.5-32.3c28.3-15.6,57.4-29.7,85.8-45
	c33.8-18.2,67.3-36.9,100.8-55.6c25.8-14.5,51.7-29,77.1-44.2c28.3-16.9,55.9-35.1,84.4-51.7c44.3-25.7,88.7-51.1,133.7-75.4
	c71.1-38.4,142.7-75.7,214-113.5 M739.8,174.6c-5.4-17-19.4-26.6-38.4-24.8c-23.4,2.2-42.6,14-56.5,32.8
	c-31.8,42.9-48.2,90.7-59.6,139.9c-3,12.8-2.1,24.8,2.9,36.2c6.6,14.9,18.7,20,35.7,13.4c9.5-3.7,18.5-9.3,27.7-14.1
	c16.7-14.4,31.3-30.1,44.1-47.2c21.9-29.5,38.5-61,45.2-95.8C743.6,201.1,743.9,187.6,739.8,174.6 M333.6,1483.7
	c55,8.5,107.5,23.8,159.5,40.5c10.1,3.2,19.8,7.8,30.4,9.4c33.3,5.1,66.9,8.6,101.2,9.4c69.9,1.5,139.6-9.6,209.1-26.4
	c25.1-6.1,50-13.5,75-20.5c29.5-8.2,59.1-15.6,88.3-24.8c74.4-23.4,148.6-47.6,222.9-71.2c7.4-2.4,14.2-5.5,20.6-10.1
	c422.8-304.6,845.6-609.3,1268.4-914l9.8-7.1c-2.2-1.8-3-2.8-4.1-3.3c-2.7-1.4-5.5-2.8-8.4-3.8c-31.5-10.9-64.9-11.6-99-3.2
	c-26.3,6.5-52.4,15.4-78.1,24.7c-88.7,31.9-172.9,74.6-254.5,123c-20.5,12.2-40.9,24.7-61.1,37.5c-14.2,9-28,18.8-42,28.3
	c-29.4,19.7-59,39.2-88.2,59.2c-21.5,14.7-42.5,30-63.8,45.1c-2.2,1.6-4.4,3.2-6.7,4.7c-17.2,11.2-34.5,22.4-51.6,33.7
	c-16.9,11.1-33.6,22.5-50.5,33.6c-19.1,12.6-38.5,24.9-57.5,37.6c-23.3,15.5-47.4,29.7-72.5,41.9c-55.8,27.3-114,41.8-173.8,47.5
	c-17.9,1.7-35.8,2.2-53.6,4.7c-50.8,7.3-100.7,7.2-149.6-0.8c-43.3-7.1-85.2-17.4-123.9-36c-9-4.3-19.4-6.6-29.6-8.5
	c-22-4-44.7-3-67.5-0.6c-3.2,0.3-6.6,0.7-9.6,0.1c-20.6-4.3-42-3.6-63.4-2.5c-59.5,3.1-117.8,15.4-173.2,43.5
	c-30.5,15.5-60,33.3-89.8,50.2c-26.9,15.3-53.8,30.7-80.7,46.1c-27.2,15.5-54.4,30.9-81.6,46.4c-23.7,13.5-47.4,26.9-70.9,40.7
	c-26.1,15.3-52.1,30.9-77.9,46.8c-16.1,9.9-31.6,20.6-47.4,31c-20,13.2-40.2,25.9-59.8,39.7c-18.2,12.8-35.8,26.5-53.6,39.9
	c-18.9,14.3-36.1,30.4-52.2,47.5c-17.1,18.1-30.7,37.9-35.6,61.7c-3.5,17.2,2.1,29.7,16.6,37.9c11.6,6.6,25.1,9,38.8,10.4
	c14.9,1.5,30,2.5,45,3.2c22.4,1.1,44.9,2.4,67.5,2.3c26.6-0.1,53,0.7,78.8,4.6 M51.8,2195.6c3.9-2.8,6.8-4.9,9.7-7
	c10.4-7.5,20.6-15.4,31.3-22.4c25-16.5,50.4-32.5,75.6-48.8c22.4-14.4,44.5-29.3,67.1-43.3c38.6-24,77.6-47.3,116.3-71.2
	c24.4-15,48.4-30.6,72.8-45.6c27.8-17.2,56.4-32.9,85.9-46.8c9.1-4.3,18.5-8.3,26.8-13.9c24.5-16.9,48.4-34.6,72.5-52
	c2.2-1.6,4.2-3.3,6.3-5c-0.3-0.4-0.6-0.9-0.9-1.4c-4.4,1.4-8.8,2.6-13.2,4.2c-38.2,14.3-76.5,28.3-114.6,43.2
	c-36.8,14.4-73.4,29.3-111.2,40.3c-22,6.4-43.9,10-65.9,8.2c-16.7-1.4-25-7.4-26.1-23.7c-0.3-5.2-0.4-10.6,0.4-15.8
	c1.6-11.9,4.2-23.7,5.6-35.6c1.7-15,3.6-30.1,3.6-44.9c0-20.3-5.7-38.7-19.6-53.3c-12.1-12.7-27.2-21.4-44.9-25.5
	c-22.3-5.2-45.1-9.1-67.6-13.5c-4.6-0.9-9.3-1.8-14.1-2.1c-35.5-2.4-71.2,0.9-106.8,10.4C6.2,1739-27.6,1752-61,1766.1
	c-44.2,18.7-88.1,38-133.2,54c-6.1,2.2-12.2,4.7-19.1,7.4l76.6,106.2c10-4.3,19.9-8.5,29.7-12.6c42-17.7,84-35.7,127.6-48
	c20.9-5.9,41.9-10.2,63.1-9.9c16.1,0.2,31.1,3.1,43.8,11.8c5.1,3.4,7.8,7.6,8.4,14.1c1.8,18.9-2.2,37.5-8.8,55.8
	C112.2,1987.1,93,2028,73,2068.7c-14.6,29.7-28.9,59.6-40.3,90.4c-1,2.8-2,6.8-0.8,8.7C37.9,2177,44.6,2185.8,51.8,2195.6"/>
</svg>
