<svg width="1438" height="932" viewBox="0 0 1438 932" fill="none" xmlns="http://www.w3.org/2000/svg">
<mask id="path-1-inside-1_363_5090" fill="white">
<path fill-rule="evenodd" clip-rule="evenodd" d="M816.235 249.016L670.063 -37.7704L446.296 198.664L453.539 62.3716L-130 -279.676L9.6076 -337.547H517.266L670.059 -37.7788L899 -279.676L816.235 249.016ZM1312.21 65.9943L1343.01 134.478L1560.67 65.9943H1312.21ZM1792.05 65.9943L1298 507.192L1795.15 901.836L2003.84 123.514L1891.72 65.9943H1792.05ZM-217 956.275L45.5526 1182.77H235.899L161.666 974.214L601.535 1025.08L190.315 328.977L-217 530.619V622.339L68.5793 712.656L161.666 974.214L-217 930.415V956.263V956.275Z"/>
</mask>
<path d="M670.063 -37.7704L670.954 -38.2245L670.311 -39.4867L669.337 -38.4577L670.063 -37.7704ZM816.235 249.016L815.344 249.47L816.745 252.22L817.223 249.171L816.235 249.016ZM446.296 198.664L445.298 198.611L445.153 201.327L447.023 199.352L446.296 198.664ZM453.539 62.3716L454.537 62.4246L454.57 61.8167L454.044 61.5089L453.539 62.3716ZM-130 -279.676L-130.383 -280.6L-132.24 -279.83L-130.506 -278.814L-130 -279.676ZM9.6076 -337.547V-338.547H9.40855L9.22469 -338.47L9.6076 -337.547ZM517.266 -337.547L518.157 -338.001L517.879 -338.547H517.266V-337.547ZM670.059 -37.7788L669.168 -37.3247L669.811 -36.0624L670.785 -37.0914L670.059 -37.7788ZM899 -279.676L899.988 -279.522L900.486 -282.701L898.274 -280.364L899 -279.676ZM1343.01 134.478L1342.09 134.888L1342.46 135.699L1343.31 135.432L1343.01 134.478ZM1312.21 65.9943V64.9943H1310.66L1311.3 66.4044L1312.21 65.9943ZM1560.67 65.9943L1560.97 66.9482L1560.67 64.9943V65.9943ZM1298 507.192L1297.33 506.446L1296.45 507.237L1297.38 507.976L1298 507.192ZM1792.05 65.9943V64.9943H1791.67L1791.39 65.2484L1792.05 65.9943ZM1795.15 901.836L1794.53 902.619L1795.73 903.566L1796.12 902.095L1795.15 901.836ZM2003.84 123.514L2004.81 123.773L2005.02 122.993L2004.3 122.624L2003.84 123.514ZM1891.72 65.9943L1892.17 65.1045L1891.96 64.9943H1891.72V65.9943ZM45.5526 1182.77L44.8994 1183.53L45.1809 1183.77H45.5526V1182.77ZM-217 956.275H-218V956.733L-217.653 957.032L-217 956.275ZM235.899 1182.77V1183.77H237.316L236.841 1182.43L235.899 1182.77ZM601.535 1025.08L601.42 1026.08L603.419 1026.31L602.396 1024.57L601.535 1025.08ZM190.315 328.977L191.176 328.469L190.704 327.669L189.871 328.081L190.315 328.977ZM-217 530.619L-217.444 529.723L-218 529.998V530.619H-217ZM-217 622.339H-218V623.071L-217.302 623.292L-217 622.339ZM68.5793 712.656L69.5215 712.321L69.3548 711.853L68.8809 711.703L68.5793 712.656ZM-217 930.415L-216.885 929.422L-218 929.293V930.415H-217ZM669.172 -37.3163L815.344 249.47L817.126 248.562L670.954 -38.2245L669.172 -37.3163ZM447.023 199.352L670.79 -37.0829L669.337 -38.4577L445.57 197.977L447.023 199.352ZM452.54 62.3185L445.298 198.611L447.295 198.718L454.537 62.4246L452.54 62.3185ZM-130.506 -278.814L453.033 63.2343L454.044 61.5089L-129.494 -280.539L-130.506 -278.814ZM9.22469 -338.47L-130.383 -280.6L-129.617 -278.752L9.99052 -336.623L9.22469 -338.47ZM517.266 -338.547H9.6076V-336.547H517.266V-338.547ZM670.95 -38.2329L518.157 -338.001L516.375 -337.092L669.168 -37.3247L670.95 -38.2329ZM898.274 -280.364L669.333 -38.4662L670.785 -37.0914L899.726 -278.989L898.274 -280.364ZM817.223 249.171L899.988 -279.522L898.012 -279.831L815.247 248.862L817.223 249.171ZM1343.92 134.068L1313.12 65.5841L1311.3 66.4044L1342.09 134.888L1343.92 134.068ZM1560.37 65.0404L1342.71 133.524L1343.31 135.432L1560.97 66.9482L1560.37 65.0404ZM1312.21 66.9943H1560.67V64.9943H1312.21V66.9943ZM1298.67 507.938L1792.72 66.7401L1791.39 65.2484L1297.33 506.446L1298.67 507.938ZM1795.78 901.053L1298.62 506.409L1297.38 507.976L1794.53 902.619L1795.78 901.053ZM2002.88 123.255L1794.19 901.577L1796.12 902.095L2004.81 123.773L2002.88 123.255ZM1891.26 66.884L2003.39 124.403L2004.3 122.624L1892.17 65.1045L1891.26 66.884ZM1792.05 66.9943H1891.72V64.9943H1792.05V66.9943ZM46.2058 1182.01L-216.347 955.518L-217.653 957.032L44.8994 1183.53L46.2058 1182.01ZM235.899 1181.77H45.5526V1183.77H235.899V1181.77ZM160.724 974.549L234.956 1183.1L236.841 1182.43L162.608 973.879L160.724 974.549ZM601.649 1024.09L161.781 973.22L161.551 975.207L601.42 1026.08L601.649 1024.09ZM189.454 329.486L600.674 1025.59L602.396 1024.57L191.176 328.469L189.454 329.486ZM-216.556 531.515L190.759 329.874L189.871 328.081L-217.444 529.723L-216.556 531.515ZM-216 622.339V530.619H-218V622.339H-216ZM68.8809 711.703L-216.698 621.385L-217.302 623.292L68.2778 713.61L68.8809 711.703ZM162.608 973.879L69.5215 712.321L67.6372 712.991L160.724 974.549L162.608 973.879ZM-217.115 931.408L161.551 975.207L161.781 973.22L-216.885 929.422L-217.115 931.408ZM-216 956.263V930.415H-218V956.263H-216ZM-216 956.275V956.263H-218V956.275H-216Z" fill="#3962E8" mask="url(#path-1-inside-1_363_5090)"/>
</svg>
