<?xml version="1.0" encoding="utf-8"?>
<!-- Generator: Adobe Illustrator 24.0.3, SVG Export Plug-In . SVG Version: 6.00 Build 0)  -->
<svg version="1.1" id="Calque_1" xmlns="http://www.w3.org/2000/svg" xmlns:xlink="http://www.w3.org/1999/xlink" x="0px" y="0px"
	 width="446.2px" height="293.7px" viewBox="0 0 446.2 293.7" style="enable-background:new 0 0 446.2 293.7;" xml:space="preserve"
	>
<style type="text/css">
	.st0{fill:#FEFEFE;}
	.st1{fill:#FFFFFF;}
</style>
<g>
	<path class="st0" d="M203.8,239.3c11.4,0,17.6,8.6,17.6,21.7c0,12.9-6.6,21.5-18.4,21.5c-6.6,0-11.4-3.6-13.7-10.1v9.3h-12.6v-58.1
		h12.6v26.2C191.6,242.9,196.7,239.3,203.8,239.3z M198.9,271c6.6,0,9.8-3.2,9.8-10c0-7-3.2-10.2-9.8-10.2
		c-6.9,0-10.1,3.2-10.1,10.2C188.8,267.7,192.1,271,198.9,271z M253.5,239.4c1.3,0,3.4,0,5.1,0.7v11.7c-1.9-0.7-3.2-0.8-5.5-0.8
		c-5.8,0-11,3-11,14.3v16.4h-12.6v-41.5H242v11.8C242.9,245.8,245.7,239.4,253.5,239.4z M294.1,240.1h12.6v41.5h-12.6v-9.3
		c-2.3,6.6-7.1,10.1-13.7,10.1c-11.9,0-18.4-8.6-18.4-21.5c0-13,6.2-21.7,17.6-21.7c7.1,0,12.1,3.7,14.5,10.5V240.1z M284.4,271
		c6.9,0,10.1-3.2,10.1-10c0-7-3.2-10.2-10.1-10.2c-6.6,0-9.8,3.2-9.8,10.2C274.6,267.7,277.8,271,284.4,271z M346.9,223.5h12.6v58.1
		h-12.6v-9.3c-2.3,6.6-7.1,10.1-13.7,10.1c-11.9,0-18.4-8.6-18.4-21.5c0-13,6.2-21.7,17.6-21.7c7.1,0,12.1,3.7,14.5,10.5V223.5z
		 M337.2,271c6.9,0,10.1-3.2,10.1-10c0-7-3.2-10.2-10.1-10.2c-6.6,0-9.8,3.2-9.8,10.2C327.4,267.7,330.5,271,337.2,271z
		 M408.9,260.5c0,1.4,0,2.5-0.1,4.3h-28.2c0.7,5.6,3.4,8,8.7,8c4,0,5.9-1.2,7.9-5.2l10.8,3.8c-2.8,7.1-9,11-19,11
		c-12.9,0-21.5-8.5-21.5-21.2c0-13.1,8.5-21.9,21.1-21.9C400.8,239.3,408.9,247.7,408.9,260.5z M388.9,248.5c-5.1,0-7.6,2.3-8.2,8.1
		h15.9C396.4,250.5,393.9,248.5,388.9,248.5z M441.1,239.4c1.3,0,3.4,0,5.1,0.7v11.7c-1.9-0.7-3.2-0.8-5.5-0.8c-5.8,0-11,3-11,14.3
		v16.4H417v-41.5h12.6v11.8C430.6,245.8,433.3,239.4,441.1,239.4z"/>
</g>
<g>
	<path class="st1" d="M186.9,0h13v58.1h-17l-20.1-35.4l-3.3-7.4v42.7h-13V0h17.7l18.8,33l4,8.1V0z M231.7,15.8
		c12.3,0,22.6,8.2,22.6,21.7c0,13.4-10.3,21.5-22.6,21.5c-12.3,0-22.6-8.1-22.6-21.5C209.2,24,219.5,15.8,231.7,15.8z M231.7,47.5
		c6.8,0,10-3.2,10-10c0-7-3.2-10.2-10-10.2s-10,3.2-10,10.2C221.8,44.2,224.9,47.5,231.7,47.5z M288.1,15.8
		c9.9,0,14.6,5.9,14.6,18.1v24.2h-12.6V34.6c0-5.1-2.3-7.4-7-7.4c-5,0-8.1,3.2-8.1,10.7v20.2h-12.6V16.6H275V26
		C277,19.2,281.3,15.8,288.1,15.8z M319.3,43.1c5.2,0,8.1,2.7,8.1,7.6c0,1.5-0.2,3.4-2.2,7l-6.5,11.5h-10.4l10-10.5
		c-4.4-0.1-7.1-3.1-7.1-8S314.2,43.1,319.3,43.1z"/>
</g>
<g>
	<path class="st1" d="M30.4,83.3c9.9,0,14.6,5.9,14.6,18.1v24.2H32.4v-23.5c0-5.1-2.3-7.4-7-7.4c-5,0-8.1,3.2-8.1,10.7v20.2H4.6
		V84.1h12.6v9.4C19.3,86.7,23.6,83.3,30.4,83.3z M75.2,83.3c12.3,0,22.6,8.2,22.6,21.7c0,13.4-10.3,21.5-22.6,21.5
		s-22.6-8.1-22.6-21.5C52.6,91.5,62.9,83.3,75.2,83.3z M75.2,115c6.8,0,10-3.2,10-10c0-7-3.2-10.2-10-10.2s-10,3.2-10,10.2
		C65.3,111.7,68.4,115,75.2,115z M133.2,84.1h12.6v41.5h-12.6v-9.4c-2,6.8-6.3,10.2-13.1,10.2c-9.9,0-14.6-5.9-14.6-18.1V84.1h12.6
		v23.5c0,5.1,2.3,7.4,7,7.4c5,0,8.1-3.2,8.1-10.7V84.1z M171.2,126.4c-11.5,0-17.8-6.1-18.5-12l11.7-3.1c0.5,4.8,3.1,5.9,7.6,5.9
		c3.2,0,5.6-1.3,5.6-3.6c0-2.2-1.2-3.4-6-4.1l-6.4-0.9c-8-1.2-11.9-5.8-11.9-12.7c0-8.1,6.2-12.7,17.2-12.7c12.8,0,17,5.3,18.2,11.5
		l-10.8,2.5c-0.4-4-1.8-5.3-7-5.3c-3.2,0-5,1.3-5,3.6c0,1.8,1.1,3.2,5.3,3.7l7.5,0.9c7.2,0.9,11.5,5.6,11.5,12.4
		C190.2,121.4,183.4,126.4,171.2,126.4z M242.5,83.3c9.9,0,14.6,5.9,14.6,18.1v24.2h-12.6v-23.5c0-5.1-2.3-7.4-7-7.4
		c-5,0-8.1,3.2-8.1,10.7v20.2h-12.6V84.1h12.6v9.4C231.4,86.7,235.7,83.3,242.5,83.3z M306.2,104.5c0,1.4,0,2.5-0.1,4.3h-28.2
		c0.7,5.6,3.4,8,8.7,8c4,0,5.9-1.2,7.9-5.2l10.8,3.8c-2.8,7.1-9,11-19,11c-12.9,0-21.5-8.5-21.5-21.2c0-13.1,8.5-21.9,21.1-21.9
		C298.1,83.3,306.2,91.7,306.2,104.5z M286.1,92.5c-5.1,0-7.6,2.3-8.2,8.1h15.9C293.7,94.5,291.2,92.5,286.1,92.5z M31.8,161.1h13.6
		L30,202.6H15.4L0,161.1h13.6l9.1,30.7L31.8,161.1z M69.8,160.3c12.3,0,22.6,8.2,22.6,21.7c0,13.4-10.3,21.5-22.6,21.5
		s-22.6-8.1-22.6-21.5C47.2,168.5,57.5,160.3,69.8,160.3z M69.8,192c6.8,0,10-3.2,10-10c0-7-3.2-10.2-10-10.2s-10,3.2-10,10.2
		C59.8,188.7,63,192,69.8,192z M127.8,161.1h12.6v41.5h-12.6v-9.4c-2,6.8-6.3,10.2-13.1,10.2c-9.9,0-14.6-5.9-14.6-18.1v-24.2h12.6
		v23.5c0,5.1,2.3,7.4,7,7.4c5,0,8.1-3.2,8.1-10.7V161.1z M151.2,202.6v-58.1h12.6v58.1H151.2z M194.5,160.3
		c12.3,0,22.6,8.2,22.6,21.7c0,13.4-10.3,21.5-22.6,21.5c-12.3,0-22.6-8.1-22.6-21.5C171.9,168.5,182.2,160.3,194.5,160.3z
		 M194.5,192c6.8,0,10-3.2,10-10c0-7-3.2-10.2-10-10.2s-10,3.2-10,10.2C184.5,188.7,187.7,192,194.5,192z M250.8,160.3
		c9.9,0,14.6,5.9,14.6,18.1v24.2h-12.6v-23.5c0-5.1-2.3-7.4-7-7.4c-5,0-8.1,3.2-8.1,10.7v20.2h-12.6v-41.5h12.6v9.4
		C239.7,163.7,244,160.3,250.8,160.3z M290.4,203.4c-11.5,0-17.8-6.1-18.5-12l11.7-3.1c0.5,4.8,3.1,5.9,7.6,5.9
		c3.2,0,5.6-1.3,5.6-3.6c0-2.2-1.2-3.4-6-4.1l-6.4-0.9c-8-1.2-11.9-5.8-11.9-12.7c0-8.1,6.2-12.7,17.2-12.7c12.8,0,17,5.3,18.2,11.5
		l-10.8,2.5c-0.4-4-1.8-5.3-7-5.3c-3.2,0-5,1.3-5,3.6c0,1.8,1.1,3.2,5.3,3.7l7.5,0.9c7.2,0.9,11.5,5.6,11.5,12.4
		C309.4,198.4,302.6,203.4,290.4,203.4z M31.8,237.3c11.4,0,17.6,8.6,17.6,21.7c0,12.9-6.6,21.5-18.4,21.5
		c-6.6,0-11.4-3.6-13.7-10.1v23.4H4.6v-55.6h12.6v9.6C19.7,240.9,24.7,237.3,31.8,237.3z M27,269c6.6,0,9.8-3.2,9.8-10
		c0-7-3.2-10.2-9.8-10.2c-6.9,0-10.1,3.2-10.1,10.2C16.8,265.7,20.1,269,27,269z M86.8,238.1h12.6v41.5H86.8v-9.3
		c-2.3,6.6-7.1,10.1-13.7,10.1c-11.9,0-18.4-8.6-18.4-21.5c0-13,6.2-21.7,17.6-21.7c7.1,0,12.1,3.7,14.5,10.5V238.1z M77.1,269
		c6.9,0,10.1-3.2,10.1-10c0-7-3.2-10.2-10.1-10.2c-6.6,0-9.8,3.2-9.8,10.2C67.3,265.7,70.4,269,77.1,269z M124.7,280.4
		c-11.5,0-17.8-6.1-18.5-12l11.7-3.1c0.5,4.8,3.1,5.9,7.6,5.9c3.2,0,5.6-1.3,5.6-3.6c0-2.2-1.2-3.4-6-4.1l-6.4-0.9
		c-8-1.2-11.9-5.8-11.9-12.7c0-8.1,6.2-12.7,17.2-12.7c12.8,0,17,5.3,18.2,11.5l-10.8,2.5c-0.4-4-1.8-5.3-7-5.3c-3.2,0-5,1.3-5,3.6
		c0,1.8,1.1,3.2,5.3,3.7l7.5,0.9c7.2,0.9,11.5,5.6,11.5,12.4C143.7,275.4,136.9,280.4,124.7,280.4z"/>
</g>
</svg>
