<?xml version="1.0" encoding="utf-8"?>
<!-- Generator: Adobe Illustrator 24.0.3, SVG Export Plug-In . SVG Version: 6.00 Build 0)  -->
<svg version="1.1" id="Calque_1" xmlns="http://www.w3.org/2000/svg" xmlns:xlink="http://www.w3.org/1999/xlink" x="0px" y="0px"
	 width="477px" height="351px" viewBox="0 0 477 351" style="enable-background:new 0 0 477 351;" xml:space="preserve">
<style type="text/css">
	.st0{fill:#901F2E;}
	.st1{clip-path:url(#SVGID_2_);}
	.st2{fill:#FFDD66;}
	.st3{fill:#FEDD66;}
</style>
<g>
	<path class="st0" d="M40,224h49v19H40V224z M155.3,206.8c17.4,0,32.9,13.5,32.9,34.5c0,23.4-18.9,38.2-42.1,38.2
		c-23.3,0-41.3-15.1-41.3-38.2c0-17.8,6.9-33.8,37.2-68.2h34.8c-18.9,17.2-27.5,21.5-46.2,44.2C139.2,209.2,148.1,206.8,155.3,206.8
		z M146.1,257.9c12.1,0,17.9-5.4,17.9-16.8c0-11.7-5.7-17.1-17.9-17.1c-12,0-17.7,5.4-17.7,17.1
		C128.4,252.4,134.1,257.9,146.1,257.9z M242,171c26.1,0,43.6,19.5,43.6,54s-17.6,54-43.6,54c-26,0-43.4-19.5-43.4-54
		S216,171,242,171z M242,258c15.8,0,19.6-6.6,19.6-33s-3.9-33-19.6-33c-15.5,0-19.4,6.6-19.4,33S226.5,258,242,258z M315.6,246.8
		c-10.9,0-19.9-7.5-19.9-18.8c0-11.1,8.9-18.6,19.9-18.6s19.8,7.5,19.8,18.6C335.4,239.3,326.6,246.8,315.6,246.8z M358,210h10.3
		l-25,33.6L320.5,277h-10.6l25.7-34L358,210z M315.6,235.7c5.3,0,7.8-2.5,7.8-7.8c0-5.2-2.5-7.7-7.8-7.7s-7.8,2.5-7.8,7.7
		C307.8,233.2,310.3,235.7,315.6,235.7z M363.5,278.5c-10.9,0-19.9-7.5-19.9-18.8c0-11.1,8.9-18.6,19.9-18.6s19.8,7.5,19.8,18.6
		C383.3,271,374.5,278.5,363.5,278.5z M363.5,267.4c5.3,0,7.8-2.5,7.8-7.8c0-5.2-2.5-7.7-7.8-7.7s-7.8,2.5-7.8,7.7
		C355.7,264.9,358.2,267.4,363.5,267.4z"/>
</g>
<g>
	<g>
		<defs>
			<rect id="SVGID_1_" width="477" height="141"/>
		</defs>
		<clipPath id="SVGID_2_">
			<use xlink:href="#SVGID_1_"  style="overflow:visible;"/>
		</clipPath>
		<g class="st1">
			<path class="st0" d="M338,138.6v1.6c0,0.4,0.4,0.8,0.8,0.8h41.5c0.2,0,0.4-0.1,0.6-0.2l62.2-63.5c0.1-0.1,0.3-0.2,0.6-0.2h3.1
				c0.2,0,0.4-0.1,0.6-0.3L477,62.2V44h-6v-2h2v-2h2V22l0,0v-2h2V1h-43.3l-9.1,9.3C419,4.4,410.8,1,400.8,1h-25.2L371,5.6V1h-19.6
				l-9.2,9.9L336.6,1h-22.3l-13.9,14.8L295.3,1h-22.4l-16.6,17.3C255,7.7,246.4,1,233.7,1h-26.6l-8.5,9.3c-5.3-6.3-13.7-10-23.7-10
				s-19,4.1-24.9,10.7l-27.7,27.8L109,1H86.6L49,39.9V1H29.6L-0.1,16.2c-0.1,0.1-0.2,0.3-0.9,0.5v60.1c0.7,0.4,1,0.8,1.4,0.8
				c0.7,0,1.1,0.9,0.5,1.4l-1,1C-0.2,80.1,0,80.5,0,80.5v59.7c0,0.4,0.4,0.8,0.8,0.8h29.4c6.8,0,11.8-2.6,15.9-6.8l3.6-3.6
				c0.5-0.5,1.3-0.1,1.3,0.6v10.1c0,0.4,0.4,0.8,0.8,0.8h18.5c0.2,0,0.5-0.1,0.6-0.3l5.9-7.5c0.4-0.5,1.1-0.4,1.3,0.2l2.9,7.1
				c0.1,0.3,0.4,0.5,0.7,0.5h34.1c0.2,0,0.4-0.1,0.6-0.2l11.3-11.7l0,0h7.3c0.3,0,0.6,0.2,0.7,0.5l3.6,10.9c0.1,0.3,0.4,0.5,0.7,0.5
				h43.2c10.4,0,18.4-4,24.4-10.4l7-7.2c0.5-0.5,1.3-0.1,1.3,0.6v16.3c0,0.4,0.4,0.8,0.8,0.8h41.6c0,0,0.4-0.7,0.6-0.9l1.5-1.5
				c0.5-0.5,1.3-0.1,1.6,0.5v0.4c-0.2,0.4,0.1,0.8,0.5,0.4h18.6c0.2,0.4,0.4,0.3,0.5,0.1l6.5-6.1c0.4-0.4,1-0.2,1.2,0.3l2.3,5.5
				c0.1,0.3,0.4,0.5,0.7,0.1h40.2c0.2,0.4,0.4,0.3,0.6,0.1l3-3.1C336.7,137.6,337.6,137.9,338,138.6L338,138.6z"/>
			<path class="st2" d="M67,47H45V5H33v53h34V47z"/>
			<path class="st2" d="M108.9,47l4.1,12h12.6L106.7,5H89.6l-19,54h12.6l4.1-12H108.9z M95,24l3.1-9.9l3,9.9l4.1,12H91L95,24L95,24z
				"/>
			<path class="st2" d="M201,58V29h-26v10h14.6c-1.2,6.3-7,9.4-13.4,9.4c-10.7,0-15.9-5.3-15.9-17.3c0-10.6,5.6-16.6,15.6-16.6
				c7.1,0,11.4,3.5,13.6,10.8l10.7-5c-2.6-10.4-12-16.8-24-16.8c-15.9,0-27.9,11.5-27.9,27.8s11.6,27.6,25,27.6
				c5.5,0,14.2-1.4,17.6-12.2L190.9,58H201L201,58z"/>
			<path class="st2" d="M223,38h8.5l8.8,21h14l-9.2-16.7l-4.4-4.7c7.9-2,12.5-7.8,12.5-16c0-10-7.2-16.7-19.2-16.7h-23v53h12V38
				L223,38z M223,15h10.3c5.9,0,8.1,1.8,8.1,6.4s-2.3,6.6-8.1,6.6H223V15z"/>
			<path class="st2" d="M312,59L293.1,5H276l-19,54h12.6l4.1-12h21.6l4.1,12H312L312,59z M277.6,36l4-11.6l3-9.6l2.9,9.6l4,11.6
				H277.6L277.6,36z"/>
			<path class="st2" d="M356,43.2l-3.7-7.6L335.1,5H319v54h12V19.3l3.1,6.9L352.6,59H368V5h-12V43.2z"/>
			<path class="st2" d="M401.6,5H380v54h21.6c17.3,0,28.2-10.8,28.2-27C429.8,15.8,418.9,5,401.6,5z M401,47h-9V16h9
				c11.9,0,15.6,3.7,15.6,15.5C416.6,43.3,412.9,47,401,47L401,47z"/>
			<path class="st2" d="M473,16V5h-35v54h35V47h-23V36h22V25h-22v-9H473z"/>
			<path class="st2" d="M62.8,94.5c8.5-2.1,11.6-6.9,11.6-12.7C74.4,73.4,68,68,57.1,68H33v54h26.7c9.8,0,16.3-5.6,16.3-15.2
				C76,101.6,73.3,96.1,62.8,94.5L62.8,94.5z M45,79h10.4c3.6,0,6.2,1.6,6.2,5.1c0,4-1.9,5.9-5.7,5.9H45V79L45,79z M56.2,111H45v-11
				h10.7c4,0,6.8,1.7,6.8,5.2C62.5,109.2,60.4,111,56.2,111z"/>
			<path class="st2" d="M114,100.6c8-2,12.6-7.8,12.6-16c0-10-7.2-16.7-19.4-16.7H84v54h13v-20h9l9.2,20h12.5l-9.2-16.7L114,100.6
				L114,100.6z M107.3,92H97V79h10.3c5.9,0,8.1,1.8,8.1,6.4C115.4,90,113.1,92,107.3,92z"/>
			<path class="st2" d="M149.2,68l-19,54h12.6l4.1-12h21.6l4.1,12h12.6l-18.8-54H149.2L149.2,68z M150.8,100l4-11.6l3-9.6l2.9,9.6
				l4,11.6H150.8L150.8,100z"/>
			<path class="st2" d="M213.6,68H192v54h21.6c17.3,0,28.2-10.8,28.2-27C241.8,78.8,230.9,68,213.6,68z M213,111h-9V80h9
				c11.9,0,15.6,3.7,15.6,15.5C228.6,107.3,224.9,111,213,111L213,111z"/>
			<path class="st2" d="M250,122h35v-11h-23v-11h22V89h-22v-9h23V68h-35V122z"/>
			<path class="st2" d="M325,100.6c7.7-2,12.1-7.8,12.1-16c0-10-7-16.7-18.7-16.7H296v54h12v-20h8.3l8.5,20h13.4l-8.9-16.7
				L325,100.6L325,100.6z M318.3,92H308V79h10.3c5.9,0,8.1,1.8,8.1,6.4C326.4,90,324.1,92,318.3,92z"/>
			<path class="st2" d="M359,68h-12v54h12V68z"/>
			<path class="st2" d="M371,122h35v-11h-23v-11h22V89h-22v-9h23V68h-35V122z"/>
		</g>
	</g>
</g>
<g>
	<path class="st3" d="M9.7,170.8c-1.3,0-2.1-0.8-2.1-2.1c0-1.3,0.8-2,2.1-2c1.3,0,2.1,0.7,2.1,2C11.8,170,11.1,170.8,9.7,170.8z
		 M5,193v-2h3v-17h3v15c0,2.2-1.8,4-4,4H5z M26,174h3v14h-3v-3.4c-0.7,2.2-2.2,3.7-4.9,3.7c-3.3,0-5.1-2-5.1-5.7V174h3v8.6
		c0,2.2,1.2,3.3,3.1,3.3c2.4,0,3.9-1.8,3.9-5.1V174z M38.6,188.4c-3.4,0-5.7-1.7-6.2-4.3l2.9-0.9c0.3,2.1,1.4,2.8,3.5,2.8
		c1.8,0,2.8-0.6,2.8-1.7c0-1.1-0.4-1.5-2.1-1.8l-2.6-0.5c-2.3-0.4-4.1-1.6-4.1-4.2c0-2.7,2.1-4.4,5.5-4.4c3.3,0,5.4,1.4,6,4.4
		l-2.8,0.7c-0.2-2.2-1.2-2.7-3-2.7c-1.7,0-2.6,0.6-2.6,1.8c0,1,0.4,1.5,1.8,1.7l3.2,0.6c2.2,0.4,3.7,1.6,3.7,4
		C44.6,186.7,42.3,188.4,38.6,188.4z M59,173h3v20h-3v-8.3c-1,2.2-2.7,3.4-5.1,3.4c-4.1,0-6.6-3.1-6.6-7.7s2.5-7.7,6.5-7.7
		c2.4,0,4.2,1.3,5.2,3.4V173z M54.5,185.7c3.1,0,4.5-1.5,4.5-4.7c0-3.2-1.4-4.7-4.5-4.7c-3,0-4.5,1.5-4.5,4.7
		C50,184.2,51.5,185.7,54.5,185.7z M77,174h3v14h-3v-3.4c-0.7,2.2-2.2,3.7-4.9,3.7c-3.3,0-5.1-2-5.1-5.7V174h3v8.6
		c0,2.2,1.2,3.3,3.1,3.3c2.4,0,3.9-1.8,3.9-5.1V174z M86.6,166.6c1.3,0,2.1,0.8,2.2,2.1c0,0.4-0.1,1-0.6,1.9l-2.5,4.4h-3l3.8-4.2
		c-1.3,0-2.1-0.9-2.1-2.2C84.4,167.4,85.2,166.6,86.6,166.6z M98.2,171h-1.8l-4.7-5h4.6L98.2,171z M100,174h3v14h-3v-2.9
		c-1,2-2.7,3.2-5.1,3.2c-4.1,0-6.6-2.9-6.6-7.3s2.5-7.3,6.5-7.3c2.4,0,4.2,1.2,5.2,3.2V174z M95.7,185.7c3.1,0,4.5-1.5,4.5-4.7
		c0-3.2-1.4-4.7-4.5-4.7s-4.5,1.5-4.5,4.7C91.3,184.2,92.7,185.7,95.7,185.7z"/>
</g>
<g>
	<path class="st3" d="M116.2,320c-3.4,0-5.7-1.7-6.2-4.4l2.9-0.9c0.3,2.1,1.4,2.8,3.5,2.8c1.8,0,2.8-0.6,2.8-1.7
		c0-1.1-0.4-1.5-2.1-1.8l-2.6-0.5c-2.3-0.4-4-1.6-4-4.2c0-2.7,2.1-4.4,5.5-4.4c3.3,0,5.4,1.4,6,4.4l-2.8,0.7c-0.2-2.2-1.2-2.7-3-2.7
		c-1.7,0-2.6,0.6-2.6,1.8c0,1,0.4,1.5,1.8,1.7l3.2,0.6c2.2,0.4,3.7,1.7,3.7,4C122.2,318.2,119.9,320,116.2,320z M136,305h3v14h-3
		v-3.4c-0.7,2.2-2.2,3.7-4.9,3.7c-3.3,0-5.1-2-5.1-5.7V305h3v8.6c0,2.2,1.2,3.3,3.1,3.3c2.4,0,3.9-1.8,3.9-5.1V305z M151,305
		c0.6,0,1.3,0,2,0.2v3c-0.7-0.2-1.2-0.4-2.2-0.4c-2.7,0-4.8,5.6-4.8,5.6v5.6h-3v-14h3v4.5C147,307.2,148.1,305,151,305z M163,320
		v-21h3v21H163z M183.7,311.7c0,0.5,0,0.7,0,1.3h-10.7c0.2,2.9,1.4,4,4.1,4c2,0,2.9-0.5,3.5-2.2l2.8,1c-1,2.5-3.4,3.7-6.3,3.7
		c-4.4,0-7.2-2.9-7.2-7.5c0-4.5,2.9-7.5,7.1-7.5C180.9,304.5,183.7,307.3,183.7,311.7z M176.9,307.2c-2.4,0-3.7,1.2-4,3.8h7.7
		C180.5,308.2,179.4,307.2,176.9,307.2z M192.1,320c-3.4,0-5.7-1.7-6.2-4.4l2.9-0.9c0.3,2.1,1.4,2.8,3.5,2.8c1.8,0,2.8-0.6,2.8-1.7
		c0-1.1-0.4-1.5-2.1-1.8l-2.6-0.5c-2.3-0.4-4.1-1.6-4.1-4.2c0-2.7,2.1-4.4,5.5-4.4c3.3,0,5.4,1.4,6,4.4L195,310
		c-0.2-2.2-1.2-2.7-3-2.7c-1.7,0-2.6,0.6-2.6,1.8c0,1,0.4,1.5,1.8,1.7l3.2,0.6c2.2,0.4,3.7,1.7,3.7,4
		C198.1,318.2,195.8,320,192.1,320z M216.3,304.7c0.6,0,1.2,0,1.7,0.2v3c-0.4-0.2-0.8-0.4-1.9-0.4c-2.7,0-4.1,2.2-4.1,5.6v5.8h-3
		v-14h3v4.2C212.4,306.9,213.5,304.7,216.3,304.7z M233.5,311.7c0,0.5,0,0.7,0,1.3h-10.7c0.2,2.9,1.4,4,4.1,4c2,0,2.9-0.5,3.5-2.2
		l2.8,1c-1,2.5-3.4,3.7-6.3,3.7c-4.4,0-7.2-2.9-7.2-7.5c0-4.5,2.9-7.5,7.1-7.5C230.7,304.5,233.5,307.3,233.5,311.7z M226.7,307.2
		c-2.4,0-3.7,1.2-4,3.8h7.7C230.3,308.2,229.2,307.2,226.7,307.2z M243.4,317.2c2.3,0,3.5-0.9,4.1-3.7l3,0.8c-0.9,4-3.7,5.7-7.1,5.7
		c-4.5,0-7.5-3-7.5-7.5s3-7.5,7.5-7.5c3.5,0,6.1,1.8,7.1,5.7l-3,0.8c-0.5-2.8-1.7-3.7-4.1-3.7c-3,0-4.4,1.5-4.4,4.7
		C239,315.7,240.4,317.2,243.4,317.2z M260.5,305c4.2,0,7.6,2.9,7.6,7.5s-3.4,7.5-7.6,7.5c-4.2,0-7.6-2.9-7.6-7.5
		S256.3,305,260.5,305z M260.5,317.2c3.1,0,4.5-1.5,4.5-4.7s-1.4-4.7-4.5-4.7c-3,0-4.5,1.5-4.5,4.7S257.5,317.2,260.5,317.2z
		 M276.6,320c-3.4,0-5.7-1.7-6.2-4.4l2.9-0.9c0.3,2.1,1.4,2.8,3.5,2.8c1.8,0,2.8-0.6,2.8-1.7c0-1.1-0.4-1.5-2.1-1.8l-2.6-0.5
		c-2.3-0.4-4-1.6-4-4.2c0-2.7,2.1-4.4,5.5-4.4c3.3,0,5.4,1.4,6,4.4l-2.8,0.7c-0.2-2.2-1.2-2.7-3-2.7c-1.7,0-2.6,0.6-2.6,1.8
		c0,1,0.4,1.5,1.8,1.7l3.2,0.6c2.2,0.4,3.7,1.7,3.7,4C282.6,318.2,280.3,320,276.6,320z M304,299h3v21h-3v-3c-1,2.1-2.7,3.3-5.1,3.3
		c-4.1,0-6.6-3-6.6-7.5s2.5-7.5,6.5-7.5c2.4,0,4.2,1.2,5.2,3.4V299z M300,317.2c3.1,0,4.5-1.5,4.5-4.7s-1.4-4.7-4.5-4.7
		c-3,0-4.5,1.5-4.5,4.7S296.9,317.2,300,317.2z M324.9,311.7c0,0.5,0,0.7,0,1.3h-10.7c0.2,2.9,1.4,4,4.1,4c2,0,2.9-0.5,3.5-2.2
		l2.8,1c-1,2.5-3.4,3.7-6.3,3.7c-4.4,0-7.2-2.9-7.2-7.5c0-4.5,2.9-7.5,7.1-7.5C322.1,304.5,324.9,307.3,324.9,311.7z M318.1,307.2
		c-2.4,0-3.7,1.2-4,3.8h7.7C321.7,308.2,320.6,307.2,318.1,307.2z M111,351v-21h3v21H111z M120.6,329.6c1.3,0,2.1,0.8,2.2,2.1
		c0,0.4-0.1,1-0.6,1.9l-2.5,4.4h-3l3.8-4.2c-1.3,0-2.1-0.9-2.1-2.2C118.3,330.4,119.2,329.6,120.6,329.6z M134,336h3v14h-3v-2.9
		c-1,2-2.7,3.2-5.1,3.2c-4.1,0-6.6-2.9-6.6-7.3s2.5-7.3,6.5-7.3c2.4,0,4.2,1.2,5.2,3.2V336z M129.6,348.2c3.1,0,4.5-1.5,4.5-4.7
		s-1.4-4.7-4.5-4.7s-4.5,1.5-4.5,4.7S126.6,348.2,129.6,348.2z M149.9,335.7c3.3,0,5.1,2,5.1,5.7v8.6h-3v-8.6c0-2.2-1.2-3.3-3.1-3.3
		c-2.4,0-3.9,1.8-3.9,5.1v6.8h-3v-14h3v3.4C145.7,337.1,147.2,335.7,149.9,335.7z M165.9,348.2c2.3,0,3.5-0.9,4.1-3.7l3,0.8
		c-0.9,4-3.7,5.7-7.1,5.7c-4.5,0-7.5-3-7.5-7.5s3-7.5,7.5-7.5c3.5,0,6.2,1.8,7.1,5.7l-3,0.8c-0.5-2.8-1.7-3.7-4.1-3.7
		c-3,0-4.4,1.5-4.4,4.7S163,348.2,165.9,348.2z M178.2,333.3c-1.3,0-2.1-0.8-2.1-2.1c0-1.3,0.8-2,2.1-2c1.3,0,2.1,0.7,2.1,2
		C180.3,332.5,179.5,333.3,178.2,333.3z M177,350v-14h3v14H177z M197.1,342.7c0,0.5,0,0.7,0,1.3h-10.7c0.2,2.9,1.4,4,4.1,4
		c2,0,2.9-0.5,3.5-2.2l2.8,1c-1,2.5-3.4,3.7-6.3,3.7c-4.4,0-7.2-2.9-7.2-7.5c0-4.5,2.9-7.5,7.1-7.5
		C194.4,335.5,197.1,338.3,197.1,342.7z M190.4,338.2c-2.4,0-3.7,1.2-4,3.8h7.7C194,339.2,192.9,338.2,190.4,338.2z M208.9,335.7
		c3.3,0,5.1,2,5.1,5.7v8.6h-3v-8.6c0-2.2-1.2-3.3-3.1-3.3c-2.4,0-3.9,1.8-3.9,5.1v6.8h-3v-14h3v3.4
		C204.7,337.1,206.2,335.7,208.9,335.7z M226.9,335.7c3.3,0,5.1,2,5.1,5.7v8.6h-3v-8.6c0-2.2-1.2-3.3-3.1-3.3
		c-2.4,0-3.9,1.8-3.9,5.1v6.8h-3v-14h3v3.4C222.7,337.1,224.2,335.7,226.9,335.7z M249.1,342.7c0,0.5,0,0.7,0,1.3h-10.7
		c0.2,2.9,1.4,4,4.1,4c2,0,2.9-0.5,3.5-2.2l2.8,1c-1,2.5-3.4,3.7-6.3,3.7c-4.4,0-7.2-2.9-7.2-7.5c0-4.5,2.9-7.5,7.1-7.5
		C246.3,335.5,249.1,338.3,249.1,342.7z M242.3,338.2c-2.4,0-3.7,1.2-4,3.8h7.7C245.9,339.2,244.8,338.2,242.3,338.2z M266.5,348.2
		c2.3,0,3.5-0.9,4-3.7l3,0.8c-0.9,4-3.7,5.7-7,5.7c-4.5,0-7.5-3-7.5-7.5s3-7.5,7.5-7.5c3.5,0,6.1,1.8,7,5.7l-3,0.8
		c-0.5-2.8-1.7-3.7-4-3.7c-3,0-4.4,1.5-4.4,4.7S263.5,348.2,266.5,348.2z M283.6,336c4.2,0,7.6,2.9,7.6,7.5s-3.4,7.5-7.6,7.5
		c-4.2,0-7.6-2.9-7.6-7.5S279.4,336,283.6,336z M283.6,348.2c3.1,0,4.5-1.5,4.5-4.7s-1.4-4.7-4.5-4.7c-3,0-4.5,1.5-4.5,4.7
		S280.6,348.2,283.6,348.2z M295,351v-21h3v21H295z M303,351v-21h3v21H303z M323.1,342.7c0,0.5,0,0.7,0,1.3h-10.7
		c0.2,2.9,1.4,4,4.1,4c2,0,2.9-0.5,3.5-2.2l2.8,1c-1,2.5-3.4,3.7-6.3,3.7c-4.4,0-7.2-2.9-7.2-7.5c0-4.5,2.9-7.5,7.1-7.5
		C320.3,335.5,323.1,338.3,323.1,342.7z M316.3,338.2c-2.4,0-3.7,1.2-4,3.8h7.7C319.9,339.2,318.8,338.2,316.3,338.2z M333,348.2
		c2.3,0,3.5-0.9,4-3.7l3,0.8c-0.9,4-3.7,5.7-7,5.7c-4.5,0-7.5-3-7.5-7.5s3-7.5,7.5-7.5c3.5,0,6.1,1.8,7,5.7l-3,0.8
		c-0.5-2.8-1.7-3.7-4-3.7c-3,0-4.4,1.5-4.4,4.7S330,348.2,333,348.2z M352,339h-4v9h4v3h-3c-2.2,0-4-1.8-4-4v-8h-3v-3h3v-4h3v4h4
		V339z M356.8,333.3c-1.3,0-2.1-0.8-2.1-2.1c0-1.3,0.8-2,2.1-2c1.3,0,2.1,0.7,2.1,2C359,332.5,358.2,333.3,356.8,333.3z M355,350
		v-14h3v14H355z M369.5,336c4.2,0,7.6,2.9,7.6,7.5s-3.4,7.5-7.6,7.5c-4.2,0-7.6-2.9-7.6-7.5S365.3,336,369.5,336z M369.5,348.2
		c3.1,0,4.5-1.5,4.5-4.7s-1.4-4.7-4.5-4.7c-3,0-4.5,1.5-4.5,4.7S366.5,348.2,369.5,348.2z M388.9,335.7c3.3,0,5.1,2,5.1,5.7v8.6h-3
		v-8.6c0-2.2-1.2-3.3-3.1-3.3c-2.4,0-3.9,1.8-3.9,5.1v6.8h-3v-14h3v3.4C384.7,337.1,386.2,335.7,388.9,335.7z M406.3,330h3.4
		l-0.2,8.1l-0.6,5.9h-1.7l-0.6-5.9L406.3,330z M408.1,350.8c-1.4,0-2.1-0.8-2.1-2.1c0-1.4,0.8-2.1,2.1-2.1s2.1,0.8,2.2,2.1
		S409.5,350.8,408.1,350.8z"/>
</g>
</svg>
